<svg width="36" height="36" viewBox="0 0 36 36" fill="none" xmlns="http://www.w3.org/2000/svg">
<path d="M14.5107 27.3594V23.9736C14.5107 23.1156 15.2084 22.4186 16.0725 22.4132H19.2456C20.1137 22.4132 20.8173 23.1118 20.8173 23.9736V27.3496C20.8173 28.0938 21.4221 28.6986 22.1716 28.704H24.3364C25.3475 28.7066 26.318 28.3096 27.0339 27.6008C27.7497 26.8919 28.152 25.9294 28.152 24.9256V15.3079C28.152 14.497 27.79 13.7279 27.1635 13.2077L19.8091 7.36839C18.5235 6.34702 16.6874 6.38002 15.4399 7.4469L8.24361 13.2077C7.58753 13.7126 7.1954 14.484 7.17603 15.3079V24.9158C7.17603 27.0079 8.88433 28.704 10.9916 28.704H13.107C13.4679 28.7066 13.8149 28.5661 14.071 28.3136C14.3271 28.0612 14.4712 27.7177 14.4712 27.3594H14.5107Z" fill="#234F68"/>
</svg>
